<!-- icon666.com - MILLIONS vector ICONS FREE --><svg viewBox="0 0 64 64" xmlns="http://www.w3.org/2000/svg"><g id="icon"><path d="m26.498 39.75c-7.306 0-13.25-5.944-13.25-13.25s5.944-13.25 13.25-13.25 13.25 5.944 13.25 13.25-5.945 13.25-13.25 13.25zm0-24.5c-6.203 0-11.25 5.047-11.25 11.25s5.047 11.25 11.25 11.25 11.25-5.047 11.25-11.25-5.047-11.25-11.25-11.25z" fill="#000000" style="fill: rgb(255, 255, 255);"></path><path d="m53.445 46.463-3.316-3.319c-.006-.006-.008-.015-.014-.021s-.014-.008-.021-.014l-4.213-4.217c-.003-.003-.004-.007-.007-.01s-.007-.004-.01-.006l-3.277-3.28c1.527-2.689 2.41-5.789 2.41-9.097 0-10.201-8.299-18.5-18.5-18.5s-18.5 8.299-18.5 18.5 8.3 18.501 18.501 18.501c2.511 0 4.904-.507 7.089-1.417l3.787 3.784c.003.003.004.007.007.01s.007.004.01.007l4.216 4.212c.006.006.008.015.014.021s.015.008.021.014l3.315 3.312c.598.604 1.395.939 2.243.941h.009c.851 0 1.651-.333 2.256-.938l3.98-3.98c.607-.606.939-1.411.938-2.265-.002-.848-.337-1.645-.938-2.238zm-13.941.205 5.662-5.662 2.825 2.827-5.66 5.66zm-29.506-20.168c0-9.098 7.402-16.5 16.5-16.5s16.5 7.402 16.5 16.5-7.403 16.5-16.5 16.5-16.5-7.403-16.5-16.5zm31.479 10.814 2.275 2.277-5.663 5.663-2.601-2.599c2.367-1.323 4.406-3.155 5.989-5.341zm10.554 12.239-3.98 3.98c-.227.227-.525.352-.842.352-.001 0-.002 0-.003 0-.313-.001-.606-.124-.831-.352l-2.629-2.627 5.658-5.658 2.631 2.633c.224.221.347.515.348.827 0 .317-.125.617-.352.845z" fill="#000000" style="fill: rgb(255, 255, 255);"></path></g></svg>