<?xml version="1.0" ?><svg viewBox="0 0 64 64" xmlns="http://www.w3.org/2000/svg"><defs><style>.cls-1{fill:#eee;}.cls-2{fill:none;}.cls-2,.cls-3,.cls-4{stroke:#4c241d;stroke-linecap:round;stroke-linejoin:round;stroke-width:2px;}.cls-3{fill:#bd53b5;}.cls-4{fill:#fc8c29;}</style></defs><g id="nft-symbol"><circle class="cls-1" cx="25" cy="23.9999" r="23"/><line class="cls-2" x1="15.5858" x2="18.4142" y1="6.5858" y2="9.4142"/><line class="cls-2" x1="18.4142" x2="15.5858" y1="6.5858" y2="9.4142"/><polygon class="cls-3" points="10 21.25 10 46.75 32 59.5 54 46.75 54 21.25 32 8.5 10 21.25"/><polygon class="cls-4" points="13 23 13 45 32 56 51 45 51 23 32 12 13 23"/><polyline class="cls-2" points="17 42 17 27 23 45 23 22"/><polyline class="cls-2" points="26 48 26 20 32 16.368 37.995 19.868"/><line class="cls-2" x1="33" x2="26" y1="34" y2="34"/><line class="cls-2" x1="40.8174" x2="47" y1="21.4671" y2="25"/><line class="cls-2" x1="44" x2="44" y1="45" y2="23.4787"/></g></svg>